<svg xmlns="http://www.w3.org/2000/svg" viewBox="95 388 850 160" width="850" height="160">
  <path fill="#41aef9" d="m172.563 399.5 3.404-.008c5.655.067 9.303.147 14.033 3.508 7.153 10.112 9.866 26.242 13.117 38.07a48 48 0 0 0 2.696 6.993c1.76 4.355.631 6.874-1.148 11.132l-1.685 3.575-.908 1.938q-1.436 3.056-2.885 6.104l-1.908 4.065c-3.014 6.414-6.067 12.805-9.279 19.123-2-1-2-1-2.774-2.711l-.742-2.234-.845-2.495-.889-2.685A425 425 0 0 0 173 458h-2l-.772 1.907a6483 6483 0 0 1-9.325 22.887l-1.853 4.53a4484 4484 0 0 1-5.995 14.583q-.988 2.395-1.969 4.792-1.392 3.398-2.8 6.79l-.827 2.032c-2.677 6.41-5.692 11.486-11.459 15.479-5.173 1.724-10.648 1.185-16.062 1.188l-3.667.037-3.494.005-3.21.013C107 532 107 532 105 530c-.59-3.932.186-6.762 1.676-10.344l1.102-2.685L109 514q1.318-3.311 2.629-6.625c5.368-13.509 10.814-26.972 16.541-40.334 3.126-7.305 6.099-14.664 9.035-22.047 2.192-5.497 4.415-10.982 6.637-16.468q.855-2.113 1.707-4.225a3631 3631 0 0 1 2.525-6.242l1.487-3.678c5.368-12.613 9.488-15.223 23.001-14.881"/>
  <path fill="#788ff8" d="m246.383 399.176 2.847.013 2.895.123 2.918-.005c5.721.114 9.655.58 13.957 4.693 3.369 5.12 5.163 11.012 7 16.813l1.55 4.773.75 2.304c.898 2.707 1.883 5.378 2.887 8.048 6.797 18.483 6.797 18.483 2.293 28.308-.527 1.167-1.055 2.335-1.6 3.537l-1.692 3.654q-.831 1.82-1.659 3.643-1.572 3.456-3.156 6.908A362 362 0 0 0 271 492h-2a130 130 0 0 1-9.77-20.703c-2.177-5.834-4.443-11.723-7.23-17.297l-.59 1.574c-3.409 8.82-7.485 17.325-11.535 25.863l-1.147 2.418Q234.886 491.939 231 500l-1.672 3.478a544 544 0 0 1-4.016 8.084l-1.092 2.246c-2.35 4.519-4.363 6.606-9.22 8.192-2.87.431-5.664.51-8.562.5l-2.249.086c-4.194.015-5.743-.229-9.134-2.945-3.566-4.583-4.535-9.035-4.469-14.83.929-6.31 4.117-12.071 6.789-17.811q1.01-2.22 2.014-4.44 1.598-3.534 3.208-7.064c3.972-8.704 7.8-17.47 11.628-26.238 4.635-10.613 4.635-10.613 6.551-14.933a575 575 0 0 0 5.483-12.752l2.28-5.362.997-2.483c3.047-7.065 8.378-14.665 16.847-14.552"/>
  <path fill="#a077f8" d="m327.598 399.602 3.177-.012 3.288.035 3.298-.035 3.174.012 2.887.01c3.026.455 4.407 1.253 6.578 3.388 1.142 6.595-1.726 12.032-4.312 18l-1.225 2.906c-1.142 2.704-2.3 5.4-3.463 8.094a3594 3594 0 0 0-6.66 15.625c-14.938 35.215-14.938 35.215-19.937 46.572a575 575 0 0 0-5.981 14.084l-1.323 3.182a403 403 0 0 0-2.439 6.006c-2.476 5.909-5.163 10.066-10.66 13.531-4.94 1.647-10.056 1.343-15.232 1.405-1.997.032-3.994.101-5.99.171-10.85.127-10.85.127-14.942-3.123-3.077-3.312-5.109-7.045-6.961-11.14l-1.002-2.127a488 488 0 0 1-1.96-4.227c-.812-1.742-1.685-3.457-2.565-5.166l-1.41-2.793-1.223-2.375c-1.932-7.095 1.063-12.999 4.347-19.125l1.143-2.203c.92-1.772 1.856-3.535 2.795-5.297h3q1.659 3.53 3.313 7.063l.935 1.99A391 391 0 0 1 264 497c1.173 2.874 1.173 2.874 3 5 3.096.892 3.096.892 6 1l.511-1.624c1.899-5.878 4.15-11.527 6.614-17.188l1.19-2.759c2.664-6.152 5.41-12.264 8.185-18.366a540 540 0 0 0 8.938-20.875 1323 1323 0 0 1 9.875-23.75l1.238-2.94c3.736-8.66 7.634-15.86 18.047-15.896"/>
  <path fill="#4ebcf2" d="M388 434h24l2.188 8.938c1.63 6.586 3.357 13.126 5.312 19.625a604 604 0 0 1 5.313 18.812l.664 2.47c.821 3.126 1.523 5.91 1.523 9.155h2l.375-3.937c.82-8.604 3.368-16.788 5.938-25 3.082-9.976 5.94-19.99 8.687-30.063h24v73h-14l-1-54c-5.375 16.708-5.375 16.708-10.094 33.516-1.787 6.872-3.66 13.746-5.906 20.484h-19l-2.148-8.691a244 244 0 0 0-1.774-6.52c-1.673-5.88-3.17-11.804-4.691-17.725-2.002-7.733-4.19-15.376-6.387-23.064l-1 56h-14z"/>
  <path fill="#f7f7f8" d="M687 436h14c1.605 4.814 2.68 9.286 3.473 14.25l.387 2.353c.406 2.465.804 4.93 1.202 7.397l.815 4.969q.75 4.57 1.49 9.14.59 3.633 1.21 7.26c.578 3.595.486 6.995.423 10.631h2l.078-1.879c.45-7.01 1.98-13.342 3.879-20.09 1.319-4.876 2.133-9.818 2.962-14.797 1.089-6.488 2.537-12.836 4.081-19.234h21l.813 5.25c.688 4.142 1.5 8.188 2.562 12.25 3.36 12.982 5.743 26.229 7.625 39.5 2.317-11.147 4.283-22.329 6.125-33.562l.8-4.846q.732-4.422 1.458-8.844.804-4.875 1.617-9.748h14c-.696 9.47-2.579 18.642-4.437 27.938q-.708 3.57-1.413 7.143l-.913 4.611a832 832 0 0 0-2.814 15.008c-1.004 5.462-2.241 10.875-3.423 16.3h-22l-1.898-10.543q-.917-5.06-1.837-10.117-.638-3.514-1.269-7.028-.91-5.054-1.832-10.105l-.565-3.17-.546-2.971-.47-2.604c-.62-2.62-1.525-4.99-2.583-7.462l-.366 1.648L721 507h-21a460 460 0 0 1-4.812-24.562c-1.799-10.682-3.97-21.269-6.258-31.854l-.758-3.56-.685-3.16C687 441 687 441 687 436M808.25 454.5l2.275.02c7.552.247 12.972 2.226 18.56 7.418 6.293 6.78 7.37 12.31 7.235 21.476-.621 6.959-3.178 13.721-8.32 18.586-8.883 5.763-16.391 6.997-27 6-6.817-2.027-12.35-5.845-16-12-3.592-7.744-4.56-17.076-2.379-25.36 4.486-10.287 14.703-16.238 25.629-16.14"/>
  <path fill="#5eabf2" d="M517.04 457.293c3.647 2.92 5.5 5.208 6.96 9.707.227 3.413.227 3.413.195 7.27l-.008 2.063c-.011 2.16-.036 4.32-.062 6.48q-.016 2.204-.027 4.412-.035 5.387-.098 10.775h5v9h-16v-6l-1.61 1.277-2.14 1.66-2.11 1.653c-5.581 3.677-13.049 3.046-19.425 2.055-5.24-1.505-7.897-4.555-10.645-9.172-1.702-3.933-2.006-7.294-1.07-11.473 1.813-3.375 1.813-3.375 4-6l1.438-1.75c3.561-2.85 7.408-3.508 11.863-3.664l2.959-.117 3.053-.094 3.11-.117q3.788-.141 7.577-.258c.32-4.171.32-4.171-1.312-7.812-3.71-2.61-7.304-2.49-11.688-2.188-3.539 1.651-4.81 2.716-7 6l-11-1c.137-5.488 2.43-8.456 6.059-12.297 7.256-6.365 23.952-5.5 31.98-.41"/>
  <path fill="#837cf3" d="M631 434h13v27l8-6c6.195-2.065 11.408-1.599 17.313 1.188 4.84 2.671 7.63 5.256 9.769 10.43 1.12 4.126 1.17 7.81 1.113 12.062l-.008 2.463a1386 1386 0 0 1-.062 7.732q-.016 2.632-.027 5.266-.035 6.43-.098 12.859h-12l-.06-3.058c-.076-3.75-.165-7.5-.257-11.249q-.058-2.432-.105-4.865c-.046-2.334-.104-4.667-.164-7l-.035-2.191c-.107-3.672-.275-6.558-2.379-9.637-3.432-2.826-6.541-3.59-11-3.422-3.695.78-5.446 2.682-8 5.422-1.366 3.646-1.222 7.541-1.316 11.39l-.063 2.136a2408 2408 0 0 0-.183 6.724l-.131 4.57q-.16 5.59-.307 11.18h-13z"/>
  <path fill="#f5f5f6" d="M884 435h13v40l5-5 2.063-2.027 1.937-1.91 1.938-1.903c2.231-2.224 2.231-2.224 4.292-5.39 3.173-3.173 3.173-3.173 6.758-3.356q2.165.06 4.324.211l2.245.082c1.815.07 3.63.178 5.443.293-1.541 3.713-3.808 5.981-6.687 8.75-3.223 3.166-6.408 6.336-9.438 9.688l-1.695 1.87c-1.466 1.758-1.466 1.758-1.18 4.692 1.353 2.1 1.353 2.1 3.25 4.313l2.172 2.644a744 744 0 0 0 5.781 6.742l1.651 1.907a587 587 0 0 0 3.284 3.747C932 504.78 932 504.78 932 507c-14.053 1.366-14.053 1.366-18.305-1.617-1.763-2.372-3.204-4.832-4.695-7.383a281 281 0 0 0-4.937-5.937C900 487.24 900 487.24 900 485h-2l-1 22h-13z"/>
  <path fill="#708ef2" d="M617 461c3.843 4.27 6 7.201 6 13-2.995.872-5.636 1.108-8.75 1.063l-2.422-.028L610 475l-1.187-2.812c-2.023-3.558-3.045-4.68-6.813-6.188-3.94-.576-7.08-.347-10.812 1.063-3.767 3.336-4.924 6.746-5.508 11.593-.262 6.349.514 10.233 4.32 15.344 3.896 2.597 6.632 2.638 11.238 2.602 3.434-.748 4.186-1.788 6.2-4.602 2.168-3.02 2.92-3.89 6.656-4.531 3.005.028 5.923.178 8.906.531-1.29 7.4-4.504 11.981-10.121 16.738-4.692 3.151-8.714 3.535-14.317 3.512l-3.87.016c-7.166-.516-12.037-2.892-16.692-8.266-5.287-7.854-7.053-14.63-6-24l.223-2.473c1.045-7.003 5-11.698 10.582-15.879 10.919-6.745 24.5-4.313 34.195 3.352"/>
  <path fill="#66aaf3" d="M541 440h12v16h14v10h-14q.172 6.344.375 12.688c.03 1.198.062 2.396.094 3.63l.117 3.506.095 3.222c.231 3.387.231 3.387 2.319 7.954h11v10q-4.094.08-8.187.125l-2.33.05c-4.249.037-7.682-.036-11.483-2.175-4.151-5.42-5.126-9.124-5.098-15.855l.005-2.005c.005-2.11.018-4.218.03-6.327q.009-2.148.014-4.295.017-5.259.049-10.518h-11v-10h12z"/>
  <path fill="#f3f3f5" d="M876 455v12l-5.187.188c-4.185.366-5.527.59-8.938 3.25-2.938 4.015-3.074 6.915-3.191 11.757l-.063 2.144q-.098 3.393-.183 6.786l-.131 4.598A4767 4767 0 0 0 858 507h-13v-51h13l1 5 1.18-1.312c5.172-5.15 8.642-5.278 15.82-4.688"/>
  <path fill="#161b38" d="M814 466c4.112 1.836 5.568 3.28 7.875 7.125 1.628 4.534 1.837 9.131 1.125 13.875-2.613 5.133-5.54 8.18-11 10-6.66.777-6.66.777-10.008-1.164-3.452-2.817-6.035-5.37-6.992-9.836-.584-7.119.47-12.837 5-18.5 4.624-2.312 8.935-2.221 14-1.5"/>
  <path fill="#1b2950" d="m502.75 483.813 2.402.04c1.95.036 3.899.09 5.848.147.202 5.344-.494 7.83-4 12-4.179 2.627-9.203 2.706-14 2-2.625-1.562-2.625-1.562-4-4 0-3.6.069-5.954 2.516-8.703 3.706-1.935 7.123-1.617 11.234-1.485"/>
  <path fill="#4081b5" d="M444 434h24v73h-14l-1-59h2v58l10-1 1-69-22-1z"/>
  <path fill="#1a2d58" d="M553 466h14v1l-11 1v27c-3-3-3-3-3.34-5.727.015-1.074.03-2.147.047-3.253l.03-3.526.076-3.682.04-3.716c.036-3.032.09-6.064.147-9.096"/>
  <path fill="#2a87d6" d="M105 524c2 2 2 2 3 5l24 1 1 2c-4.292.058-8.583.094-12.875.125l-3.707.05-3.535.02-3.27.032C107 532 107 532 105 530c-.125-3.125-.125-3.125 0-6"/>
  <path fill="#152646" d="M402 448c3.102 4.653 4.338 9.415 4 15l-1-2h-2v29h-1z"/>
  <path fill="#568fe8" d="M196 473c1.162 3.486.886 3.864-.652 7.012l-1.104 2.295-1.181 2.38-1.17 2.417Q190.459 490.058 189 493h-3a615 615 0 0 1-2.062-5.812l-1.16-3.27C182 481 182 481 183 478l.805 2.152 1.07 2.786 1.055 2.777c.852 2.434.852 2.434 3.07 3.285l.688-2.375c1.719-4.748 3.993-9.146 6.312-13.625"/>
  <path fill="#22265b" d="M631 433h14v25l3 1-4 2v-27h-13z"/>
  <path fill="#1f2744" d="M744 507h22l-1 2c-7.052 1.44-13.942 1.412-21 0z"/>
  <path fill="#2a3251" d="M728 472h1c.233 6.283-.595 11.88-2 18h-2v8h-2c.647-8.89 2.87-17.372 5-26"/>
  <path fill="#244270" d="m480 461 2 1-3 8 3.25-.062c2.898.048 5.036.194 7.75 1.062l.75-1.875c1.456-2.476 2.628-3.076 5.25-4.125-.812 1.938-.812 1.938-2 4l-3 1v2l-13-1c0-6.75 0-6.75 2-10"/>
  <path fill="#1a2e50" d="M453 449h1v16l-2-3-3 2 .621-2.266.817-2.984.808-2.953c.61-2.26 1.196-4.523 1.754-6.797"/>
  <path fill="#8e72e5" d="M276 476c1.392 4.176-.046 5.79-1.937 9.688l-1.715 3.574L271 492h-2l-3-7c2 0 2 0 3.625 1.5L271 488l.813-2.625c1.158-3.293 2.57-6.286 4.187-9.375"/>
  <path fill="#25235f" d="M285 458h1c.36 4.998-.656 7.98-3 12.375l-1.687 3.21L280 476h-2c1.936-6.205 4.256-12.108 7-18"/>
  <path fill="#202e5d" d="M602 465c2.5 1 2.5 1 4 2-2 1-2 1-5.812.375-3.117-.445-3.986-.472-6.938.938L591 470a174 174 0 0 1-4 2c.996-2.625 1.94-3.95 4.125-5.75 3.959-1.721 6.559-1.593 10.875-1.25"/>
  <path fill="#1d3258" d="M425 484h5l-1 9h-2z"/>
  <path fill="#4b66b5" d="M621 468c2 2 2 2 2 6-2.995.872-5.636 1.108-8.75 1.063l-2.422-.028L610 475l-1-4 2 1v2l9-2z"/>
  <path fill="#6273d3" d="m613.918 487.61 3.27.14 3.292.11 2.52.14-1 3v-2c-1.439.087-2.876.196-4.312.313l-2.426.175c-2.625.594-3.57 1.47-5.262 3.512l-2-1c1.71-3.05 2.367-3.915 5.918-4.39"/>
  <path fill="#232b48" d="M733 449h1l1 9h-2v3h-2z"/>
  <path fill="#2a2466" d="M339 436c1.214 3.642.667 4.332-.937 7.688l-1.153 2.449L336 448h-2q.68-2.159 1.375-4.312l.773-2.426C337 439 337 439 339 436"/>
  <path fill="#268fdf" d="m110 511 2 3c-.687 3.125-.687 3.125-2 6l-3 1z"/>
  <path fill="#30a0de" d="m126 472 2 3c-1.012 3.771-1.676 4.784-5 7z"/>
  <path fill="#2a3150" d="m711 483 2 2c-.375 3.625-.375 3.625-1 7h-2z"/>
  <path fill="#363e5b" d="M728 472h1c.37 7.508.37 7.508-1.5 10l-1.5 1c1-7.429 1-7.429 2-11"/>
</svg>